<svg width="27" height="29" viewBox="0 0 27 29" fill="none" xmlns="http://www.w3.org/2000/svg">
<path d="M23.368 9.57015C23.6521 9.57015 23.9098 9.69412 24.1136 9.90359C24.3034 10.1273 24.3991 10.4052 24.3713 10.6987C24.3713 10.7956 23.6119 20.4 23.1781 24.4427C22.9065 26.9236 21.3071 28.4298 18.9082 28.4712C17.0635 28.5125 15.2605 28.5267 13.4852 28.5267C11.6004 28.5267 9.75715 28.5125 7.96797 28.4712C5.64938 28.4156 4.04868 26.8823 3.79091 24.4427C3.34465 20.3858 2.59905 10.7956 2.58519 10.6987C2.57133 10.4052 2.66557 10.1273 2.85682 9.90359C3.0453 9.69412 3.31694 9.57015 3.60243 9.57015H23.368ZM16.422 0.0267334C17.6818 0.0267334 18.8071 0.90595 19.1328 2.15994L19.3656 3.20018C19.5541 4.04804 20.2886 4.64796 21.134 4.64796H25.2889C25.8433 4.64796 26.3048 5.10823 26.3048 5.6939V6.2354C26.3048 6.80682 25.8433 7.28134 25.2889 7.28134H1.67203C1.11629 7.28134 0.654785 6.80682 0.654785 6.2354V5.6939C0.654785 5.10823 1.11629 4.64796 1.67203 4.64796H5.82692C6.67092 4.64796 7.40544 4.04804 7.59531 3.2016L7.81289 2.22976C8.15105 0.90595 9.26392 0.0267334 10.5375 0.0267334H16.422Z" fill="white"/>
</svg>
