<svg width="27" height="27" viewBox="0 0 27 27" fill="none" xmlns="http://www.w3.org/2000/svg">
<path d="M25.2079 23.6C26.0311 23.6 26.7007 24.2783 26.7007 25.1122C26.7007 25.9477 26.0311 26.6244 25.2079 26.6244H16.7704C15.9472 26.6244 15.2777 25.9477 15.2777 25.1122C15.2777 24.2783 15.9472 23.6 16.7704 23.6H25.2079ZM19.3566 1.0597L21.5361 2.79109C22.4299 3.49 23.0257 4.41129 23.2296 5.38024C23.4648 6.44607 23.2139 7.49285 22.5083 8.39826L9.5251 25.188C8.92925 25.9504 8.05116 26.3793 7.11035 26.3952L1.93589 26.4587C1.65365 26.4587 1.41845 26.2681 1.35573 25.9981L0.179715 20.8992C-0.0241272 19.962 0.179715 18.9931 0.775561 18.2465L9.97982 6.33329C10.1366 6.14268 10.4189 6.1125 10.607 6.25387L14.48 9.33543C14.7309 9.54193 15.0759 9.65312 15.4365 9.60546C16.2048 9.51016 16.7223 8.81125 16.6439 8.06468C16.5969 7.68346 16.4087 7.36577 16.1578 7.12751C16.0794 7.06397 12.3946 4.10949 12.3946 4.10949C12.1594 3.91888 12.1123 3.56942 12.3005 3.33275L13.7587 1.44093C15.1072 -0.290463 17.4593 -0.449306 19.3566 1.0597Z" fill="white"/>
</svg>
