<svg width="41" height="33" viewBox="0 0 41 33" fill="none" xmlns="http://www.w3.org/2000/svg">
<path d="M20.4395 0.940552C24.576 0.940552 28.498 2.3757 31.9126 5.03267C35.3273 7.67025 38.2346 11.5296 40.3224 16.3587C40.4785 16.7272 40.4785 17.1539 40.3224 17.503C36.1468 27.1612 28.7126 32.9406 20.4395 32.9406H20.4199C12.1663 32.9406 4.73214 27.1612 0.556526 17.503C0.400429 17.1539 0.400429 16.7272 0.556526 16.3587C4.73214 6.70055 12.1663 0.940552 20.4199 0.940552H20.4395ZM20.4395 9.18298C16.1273 9.18298 12.6346 12.6545 12.6346 16.9406C12.6346 21.2072 16.1273 24.6787 20.4395 24.6787C24.7321 24.6787 28.2248 21.2072 28.2248 16.9406C28.2248 12.6545 24.7321 9.18298 20.4395 9.18298ZM20.4418 12.0878C23.115 12.0878 25.3003 14.2599 25.3003 16.9363C25.3003 19.5933 23.115 21.7654 20.4418 21.7654C17.7491 21.7654 15.5637 19.5933 15.5637 16.9363C15.5637 16.6066 15.6028 16.2963 15.6613 15.986H15.7589C17.9247 15.986 19.6808 14.2793 19.7589 12.146C19.9735 12.1072 20.2076 12.0878 20.4418 12.0878Z" fill="white"/>
</svg>
